<svg id="_1" data-name="1" xmlns="http://www.w3.org/2000/svg" viewBox="0 0 792.9 792.9">
  <defs>
    <style>
      .cls-1, .cls-20, .cls-21, .cls-23, .cls-24, .cls-25, .cls-26 {
        fill: #343e47;
      }

      .cls-2 {
        fill: #cde1f7;
      }

      .cls-3 {
        fill: #eaf2ff;
      }

      .cls-4 {
        fill: #f9a081;
      }

      .cls-5 {
        fill: #fff;
      }

      .cls-6 {
        fill: #00a4bd;
      }

      .cls-7 {
        fill: #dbdbdb;
      }

      .cls-8 {
        fill: #aaa9a9;
      }

      .cls-9 {
        fill: #020202;
      }

      .cls-10, .cls-17 {
        opacity: 0.5;
      }

      .cls-11 {
        fill: #00bda5;
      }

      .cls-12 {
        fill: #02b298;
      }

      .cls-13, .cls-18 {
        opacity: 0.3;
      }

      .cls-14, .cls-17, .cls-18 {
        fill: #cbdaed;
      }

      .cls-15 {
        fill: #253342;
      }

      .cls-16 {
        fill: #e9f2ff;
      }

      .cls-19 {
        fill: none;
        stroke: #343e47;
        stroke-miterlimit: 10;
        stroke-width: 1.4px;
      }

      .cls-20, .cls-21, .cls-22, .cls-23, .cls-24, .cls-25, .cls-26 {
        isolation: isolate;
      }

      .cls-20, .cls-21, .cls-23, .cls-24, .cls-25, .cls-26 {
        font-size: 15.72px;
        font-family: Gilroy-Medium, Gilroy;
        font-weight: 500;
      }

      .cls-20 {
        letter-spacing: -0.01em;
      }

      .cls-23 {
        letter-spacing: -0.01em;
      }

      .cls-24 {
        letter-spacing: 0em;
      }

      .cls-25 {
        letter-spacing: -0.03em;
      }

      .cls-26 {
        letter-spacing: 0em;
      }
    </style>
  </defs>
  <g id="_07" data-name="07">
    <g id="_7" data-name="7">
      <path class="cls-1" d="M435.48,73.07c47.87,17.48,72.29,75.88,65.15,120.3-3.93,24.47-14.41,46.89-6.57,70.08,7.76,22.94,26.26,41.16,32.26,65.26,14.22,57.16-15.65,100.16-37.78,150.3-10.89,24.66-6.54,44.89-10,70.63-4.24,31.85-23.89,63.81-48.42,85.1-23.63,20.5-57.44,35-72.69,62.06l2.69-22.54c-8.66-5.78-5-18.06-10-29.44-8-18.14-28.91-33.78-43.15-47.66-35.17-34.29-72.21-61-97.65-103.13-16.8-27.82-37.18-70.95-43-102.83-8.58-46.77,52.61-74.92,34.35-114.66-8.4-18.26-19.93-26.26-20.77-48.16-.74-19.06,5.68-40.48,13.45-57.62,7.95-17.51,22.46-31,34.3-45.71,12.62-15.66,20.47-39.39,35.63-52Z"/>
      <path class="cls-1" d="M457.42,74.49c-25-46-70.77-82.11-106.8-67.79-32-14.32-63.75.59-90.52,36.16C124,223.65,263.67,776.27,263.67,776.27c32.79-79.63,105.32-145,151.71-208.75-14.9,32.36-29,68.33-31.12,104-2.87,48.92-1.91,116.34,15.5,162.57,5.66-22,7.18-47.19,13.73-70,9.26-32.26,52-48.67,65.82-78.94,22.56-49.36,10.05-112.91,19.2-165.86C506.72,471.81,491.92,138.1,457.42,74.49Z"/>
      <path class="cls-2" d="M209.25,598.66,196,370.68S278.1,327,341.58,346.56c.39-.12.79-.22,1.18-.33v788.24l-1.18-174.86-1.47,217.73-192.48,11.3Z"/>
      <path class="cls-2" d="M477.9,598.66l13.24-228S409.06,327,345.57,346.56c-.39-.12-.78-.22-1.18-.33v788.24l1.18-174.86L347,1177.34l192.49,11.3Z"/>
      <polygon class="cls-3" points="491.14 370.68 607.49 787.59 539.52 828.24 471.74 563.87 491.14 370.68"/>
      <rect class="cls-4" x="326.29" y="266.2" width="45.6" height="115.49"/>
      <path class="cls-4" d="M455.27,135.63c-3.79-1.48-8-.87-12.16,1.38C432.67,78,392.93,34.14,345.46,34.14c-47.23,0-86.81,43.45-97.49,102a13.46,13.46,0,0,0-10.28-.48c-10.17,4-13.37,21.47-7.13,39.07,3.83,10.79,10.32,19.09,17.11,23,10.22,59.37,50.11,103.67,97.79,103.67,47.38,0,87.06-43.74,97.59-102.54,7.58-3.23,15.1-12.16,19.35-24.13C468.64,157.1,465.45,139.61,455.27,135.63Z"/>
      <path class="cls-5" d="M310.15,246.25l72.67-9.17s-5.92,36.71-28.73,37.86S310.15,246.25,310.15,246.25Z"/>
      <g>
        <rect class="cls-6" x="409.5" y="693.38" width="275.28" height="181.66" transform="translate(-355.65 469.06) rotate(-35.85)"/>
        <rect class="cls-7" x="431.89" y="708.15" width="230.5" height="152.11" transform="translate(-355.65 469.06) rotate(-35.85)"/>
        <rect class="cls-8" x="629.55" y="681.2" width="23.58" height="69.87" transform="translate(-297.92 511.32) rotate(-35.85)"/>
      </g>
      <g>
        <g>
          <path class="cls-1" d="M323.08,143.05s-16.74-5.24-26.76-1.38a123.58,123.58,0,0,0-13.52,6.07s12.14-15.17,32-13.79C324.2,134.6,324.73,140.29,323.08,143.05Z"/>
          <path class="cls-1" d="M379.66,146s16.74-5.24,26.76-1.38a123.58,123.58,0,0,1,13.52,6.07s-12.14-15.17-32-13.79C378.55,137.54,378,143.23,379.66,146Z"/>
        </g>
        <g>
          <g>
            <g>
              <path class="cls-5" d="M301.13,159.28s-9.49,1.24-20.39,13.65"/>
              <path class="cls-9" d="M302.84,161.26a18.06,18.06,0,0,1,15.8,5.2c-3.65-5.57-8.89-8.42-17.51-7.18,0,0-12,.79-22.89,13.2a40,40,0,0,1,4.84,1.75C293.71,162.48,302.84,161.26,302.84,161.26Z"/>
              <path class="cls-9" d="M315.55,170.26c-.36,5.69-4.77,10.05-9.85,9.73s-8.9-5.2-8.54-10.89,4.76-10,9.84-9.73S315.91,164.57,315.55,170.26Z"/>
            </g>
            <g class="cls-10">
              <path class="cls-5" d="M304.79,169.58a3.44,3.44,0,1,1-3.21-3.65A3.44,3.44,0,0,1,304.79,169.58Z"/>
            </g>
          </g>
          <g>
            <g>
              <path class="cls-9" d="M394.75,160.84A18,18,0,0,0,378.43,164c4.32-5.07,9.88-7.24,18.27-4.93,0,0,11.8,2.3,21.05,16"/>
              <path class="cls-9" d="M381,169.05c-.36,5.7,3.46,10.57,8.54,10.89s9.49-4,9.85-9.73-3.46-10.56-8.55-10.88S381.38,163.36,381,169.05Z"/>
            </g>
            <g class="cls-10">
              <path class="cls-5" d="M388.86,169.52a3.44,3.44,0,1,1-3.22-3.65A3.44,3.44,0,0,1,388.86,169.52Z"/>
            </g>
          </g>
        </g>
      </g>
      <path class="cls-1" d="M409.28,103.21S450.83,177.68,419.94,277c0,0,47.82-84.09,19.17-157.15S409.28,103.21,409.28,103.21Z"/>
      <path class="cls-1" d="M279.77,82.25S229,156.72,259.91,256c0,0-38.62-84.08-10-157.14S279.77,82.25,279.77,82.25Z"/>
      <g>
        <path class="cls-1" d="M316.6,26.52s77.23,161.17,131.3,101.55S301.15-17.62,316.6,26.52Z"/>
        <path class="cls-1" d="M339.77,36.28s-49.34,108.47-93.63,73.63C246.14,109.91,262.53,9.62,339.77,36.28Z"/>
      </g>
      <path class="cls-4" d="M239.6,406.34a5.12,5.12,0,0,0,.76-.62l-26-30c5.11-4.42,35.67-26.31,135.31-23.29,97.37,3,116.29,18.07,122.05,29.17l-35.27,18.28a14.16,14.16,0,0,0,3.91,5c-.63-.42-16.22-10.41-91.89-12.7C264.36,389.56,239.84,406.17,239.6,406.34Z"/>
      <path class="cls-11" d="M449.15,667c-57.44-77.23-27.47-112.54-20-121.37S481,480,438.54,382.37l-94.43,1.2-94.43-1.2C207.22,480,251.55,536.85,259,545.67s37.47,44.14-20,121.37c-152.36,264.81-.24,850.75-.24,850.75H451.6S601.51,931.85,449.15,667Z"/>
      <path class="cls-12" d="M449.15,667c-57.44-77.23-27.47-112.54-20-121.37S481,480,438.54,382.37l-47.68.6a121.71,121.71,0,0,1,2.49,24.42c0,130.4,1.14,260.83,5.13,391.17,3.84,125.25,15.61,250.37,18.19,375.58,1.46,71.15-6.89,139.42-17.56,209.68-.93,6.12-4.62,33.86-1.42,9q-.75,5.87-1.51,11.73c-3,22.81-5.74,45.71-9.34,68.44-2.37,15-5,30-8.36,44.78H451.6S601.51,931.85,449.15,667Z"/>
      <path class="cls-4" d="M159.76,711.6c-2.33,41-14.53,76-33.15,110.08-6,46-10.84,80.72-11.22,81.38a16.55,16.55,0,0,1,5-5L148,919.5c3.89-2.58,20.51-135.42,32.85-245.66C171.49,685.6,160.6,696.88,159.76,711.6Z"/>
      <polygon class="cls-3" points="196.01 370.68 102.29 884.11 179.44 884.11 209.25 598.66 196.01 370.68"/>
      <g class="cls-13">
        <polygon class="cls-14" points="179.44 884.11 209.25 598.66 209.23 598.24 126.41 884.11 179.44 884.11"/>
      </g>
      <path class="cls-12" d="M418.64,379.22s-81.27-49.61-58.45,328.28S404,1205,404,1205l5.82-57.24Z"/>
      <path class="cls-15" d="M438.52,651.71c-23.75-37-26.17-63-22.42-80.32h-144c3.75,17.28,1.33,43.34-22.42,80.32Z"/>
      <path class="cls-16" d="M274.64,347.39s28.79-3.68,25.61,150.47c.45,173.25-17.63,727.69-17.63,727.69l-137.1-32.39s13.73-374,65.71-603.4c8.32-140.25-19.89-217-15.21-219.08C208.76,365.16,274.64,347.39,274.64,347.39Z"/>
      <polygon class="cls-17" points="490.18 380.21 471.74 563.87 504.62 692.1 504.62 692.1 549 578.02 490.77 377.08 490.18 380.21"/>
      <path class="cls-16" d="M412.51,347.39s-28.79-3.68-25.61,150.47C386.45,671.11,404.53,1221,404.53,1221l137.1-27.87s-13.73-374-65.71-603.4c-8.32-140.25,19.9-217,15.22-219.08C478.4,365.16,412.51,347.39,412.51,347.39Z"/>
      <path class="cls-18" d="M159.56,570.4c37.31,12.75,40.95,19.38,48,44.17l1.66-15.91L196,370.68Z"/>
    </g>
  </g>
  <g id="Calque_2" data-name="Calque 2">
    <g id="Calque_1-2" data-name="Calque 1-2">
      <g>
        <circle class="cls-19" cx="590.74" cy="683.08" r="13.05"/>
        <path class="cls-19" d="M587.53,695.73l-1.1,4.34Z"/>
      </g>
      <g>
        <text class="cls-20" transform="matrix(0.58, 0.81, -0.81, 0.58, 581.4, 676.22)">m</text>
        <text class="cls-21" transform="matrix(0.58, 0.81, -0.81, 0.58, 589.1, 686.9)">y</text>
      </g>
      <g class="cls-22">
        <text class="cls-23" transform="matrix(0.58, 0.81, -0.81, 0.58, 596.22, 696.79)">c</text>
        <text class="cls-21" transform="matrix(0.58, 0.81, -0.81, 0.58, 601.17, 703.66)">on</text>
        <text class="cls-24" transform="matrix(0.58, 0.81, -0.81, 0.58, 611.88, 718.54)">s</text>
        <text class="cls-21" transform="matrix(0.58, 0.81, -0.81, 0.58, 616.04, 724.31)">ul</text>
        <text class="cls-25" transform="matrix(0.58, 0.81, -0.81, 0.58, 623.24, 734.31)">t</text>
        <text class="cls-21" transform="matrix(0.58, 0.81, -0.81, 0.58, 626.45, 738.78)">a</text>
        <text class="cls-26" transform="matrix(0.58, 0.81, -0.81, 0.58, 632.27, 746.85)">t</text>
        <text class="cls-21" transform="matrix(0.58, 0.81, -0.81, 0.58, 635.71, 751.63)">ion.be</text>
      </g>
    </g>
  </g>
</svg>
