<svg id="_1" data-name="1" xmlns="http://www.w3.org/2000/svg" viewBox="0 0 792.9 792.9">
  <defs>
    <style>
      .cls-1 {
        fill: #00bda5;
      }

      .cls-2 {
        fill: #1353d3;
      }

      .cls-3 {
        fill: #f9a081;
      }

      .cls-4 {
        fill: #343e47;
      }

      .cls-5 {
        fill: #fff;
      }

      .cls-6 {
        fill: #020202;
      }

      .cls-7 {
        opacity: 0.5;
      }

      .cls-8 {
        opacity: 0.8;
      }

      .cls-9 {
        fill: #e9f2ff;
      }

      .cls-10 {
        fill: #cbdaed;
      }
    </style>
  </defs>
  <g id="_07" data-name="07">
    <g id="_9" data-name="9">
      <g id="_9-2" data-name="9">
        <path class="cls-1" d="M399.46,386.17s-.45-9.26,6.12-10.91S477,361.88,510,375.44s7.72,37.74,7.72,37.74L418.5,448.37Z"/>
        <path class="cls-2" d="M571.23,400.07S700,449.3,548.46,1009.38l-298.88,26.91S192.41,438.62,365.93,389.93Z"/>
        <polygon class="cls-3" points="430.6 412.28 484.31 417.05 497.16 289.18 443.46 284.41 430.6 412.28"/>
        <path class="cls-4" d="M371.17,277.71S263.46,99.55,419.4,22c8.3-4.13,17.12-1.38,25.16-5,6.17-2.79,12.56-10.84,19.32-13,21.39-6.89,46.76-3.58,82.61,10.1,56.83,21.67,80.71,90.34,82.24,99.71C637.24,165.83,643,262.43,571,273,472,287.62,371.17,277.71,371.17,277.71Z"/>
        <g>
          <path class="cls-3" d="M627.78,165.67c-4.73-2.16-10.27-1.95-15.88.18C605.39,96.4,559.23,41,497.89,35.41c-61-5.51-117.3,40.16-138,106.63a19.29,19.29,0,0,0-13.23-1.75c-13.62,3.42-19.81,23.28-13.82,44.37,3.67,12.94,11.07,23.31,19.39,28.62,6.18,69.89,52.48,125.81,114.09,131.37,61.22,5.52,117.66-40.46,138.21-107.27,10.18-2.86,21-12.31,27.86-25.68C642.52,192.07,640.46,171.46,627.78,165.67Z"/>
          <path class="cls-5" d="M424.54,261.71l96.52-4.42S508,308.66,478,307.59"/>
          <g>
            <g>
              <path class="cls-6" d="M440.3,156.71c-.9,6-6.28,10.33-12,9.58S418.63,160,419.53,154s6.28-10.33,12-9.57S441.2,150.67,440.3,156.71Z"/>
              <g class="cls-7">
                <path class="cls-5" d="M428.16,155.12a3.88,3.88,0,0,1-4.42,3.13,3.73,3.73,0,0,1-3.34-4.15,3.89,3.89,0,0,1,4.42-3.14A3.74,3.74,0,0,1,428.16,155.12Z"/>
              </g>
            </g>
            <g>
              <path class="cls-6" d="M525.59,163.51c-.89,6,3,11.55,8.76,12.3s11.11-3.53,12-9.57-3-11.56-8.75-12.31S526.49,157.46,525.59,163.51Z"/>
              <g class="cls-7">
                <path class="cls-5" d="M534.45,164.64a3.89,3.89,0,0,1-4.42,3.14,3.73,3.73,0,0,1-3.33-4.16,3.87,3.87,0,0,1,4.41-3.13A3.73,3.73,0,0,1,534.45,164.64Z"/>
              </g>
            </g>
          </g>
          <g class="cls-8">
            <path class="cls-4" d="M535.08,123c-.93,0-1.91,0-3,0-9.28.2-22.17,2.39-24.7,12.35,4.39,3,10.64-1.41,15.6-2.5a29.57,29.57,0,0,1,3.72-.56,33.55,33.55,0,0,1,3.75-.11,67.55,67.55,0,0,1,7.18.83c1.15.2,2.28.43,3.4.68,9.44,2.09,19.6,5.82,28.29,14.12a22.72,22.72,0,0,0,2.21.8c.25-.5,0-1.38-.71-2.52-5.51-10.8-17.15-18-26.07-21.64a23,23,0,0,0-3.12-.78,5526.83,5526.83,0,0,1-6.6-.66Z"/>
            <path class="cls-4" d="M439.29,114.33c.91.14,1.88.31,2.88.52,9.08,1.85,21.3,6.31,21.76,16.54-4.93,2.18-10.16-3.29-14.81-5.25a30.15,30.15,0,0,0-3.54-1.21,32.16,32.16,0,0,0-3.66-.78,66.33,66.33,0,0,0-7.21-.46c-1.17,0-2.33,0-3.48,0-9.69.36-20.42,2.21-30.63,8.8a19.85,19.85,0,0,1-2.33.39c-.14-.53.3-1.34,1.21-2.34,7.59-9.63,20.48-14.65,30-16.58a21.51,21.51,0,0,1,3.22-.21,20.81,20.81,0,0,1,3.31.27A22.57,22.57,0,0,1,439.29,114.33Z"/>
          </g>
        </g>
        <path class="cls-3" d="M457.08,428.22c48.84-1.79,86.63-14.13,114.15-28.15-30.74-15.12-64.84-26-100.51-27.22a270.24,270.24,0,0,0-114.18,20.76C369.16,412.42,396.85,430.42,457.08,428.22Z"/>
        <path class="cls-9" d="M603.61,1269.52l21.72-757.37-35.62-104L463.88,488.69l-75.32-105.9s-69.88,12.32-120.77,66.65-125.73,820.08-125.73,820.08Z"/>
        <path class="cls-5" d="M353.21,761l0,.13S320,755.48,353.21,761Z"/>
        <path class="cls-3" d="M683.92,578.57c6.62,9.58-50.93,27.77-50.93,27.77,28-7.66,86.06,6.23,86.57,13.89s-72.31,6.7-72.31,6.7,65.18,25.85,65.18,34-60.6-15.32-60.6-15.32c40.23,26.34,38.71,34.48,38.71,34.48-3.2,5.41-32.55-8.46-53.92-19.52l-14.31-67.43C654.32,582.46,681.34,574.84,683.92,578.57Z"/>
        <path class="cls-10" d="M309.57,629.45s-25.39,3.34-16-94.68c0,0-60.73,125.66-105.88,135.09Z"/>
        <polygon class="cls-10" points="388.56 758.59 330.55 1269.52 309.57 1269.52 388.56 758.59"/>
        <path class="cls-10" d="M617.43,787.7s-34,18.52-210.29,3.68l-61.32-8.26s-100.56,35.43-152.16,36.39l9-50.16,256.62-22.62Z"/>
        <path class="cls-9" d="M346.84,395.31,225.37,659.17l284.39-25.06,2.23-.86,31.06,51.86-3.25,1.67c-11.2,6.7-419.6,202.06-440,39.26C78.44,494.3,346.84,395.31,346.84,395.31Z"/>
        <polygon class="cls-10" points="371.94 681.29 330.55 681.29 353.21 761.01 371.94 681.29"/>
        <g class="cls-7">
          <path class="cls-10" d="M137.6,691.44s8-31.82,88.22-38.54l5.34,7.66S167.9,663.37,137.6,691.44Z"/>
        </g>
        <path class="cls-1" d="M320.83,406.63l67.73,215.1,41.25-1.27,159.9-212.35S565,393.66,556.16,389.93C545.07,385.24,510,375.44,510,375.44s-20.12,48.95-61.88,43.21-42.56-43.39-42.56-43.39-35.6,10.12-47,14.67C349,393.76,320.83,406.63,320.83,406.63Z"/>
        <path class="cls-4" d="M525.47,29.58c78.23,7.54,96.81,125.84,96.81,125.84-22.76,15.26-18.67,40-18.67,40l-8-5.43C599.6,64,527,35,527,35Z"/>
        <path class="cls-4" d="M453.25,35S391.1,64.14,371.94,160.45l-6.23,3.68s-5.4-32.57-12.5-31.2C353.21,132.93,388.12,51.79,453.25,35Z"/>
        <path class="cls-4" d="M592.92,105s-43.57-30.16-85.49-23.46-143.49,31-143.49,31S421.1,8.26,497.16,18.69,582.23,82.36,592.92,105Z"/>
        <polygon class="cls-10" points="577.24 608.87 583.43 528.9 530.57 644.77 552.82 650.49 577.24 608.87"/>
        <path class="cls-3" d="M614.15,648.47l-2.08,1.08c-22.22-11.76-51.47-19-81.83-23.27,22.52-8.53,59.81-22.39,92.07-33.15l14.31,67.43C624,654,614.15,648.47,614.15,648.47Z"/>
        <path class="cls-3" d="M388.56,632.68l-40.8-5.27s-33.55-20.58-79.28-12.32c-8.9,1.61-18.26,9.77-27.92,13.93-59.32,25.52-31.3,37.65-31.3,37.65s147.68,15.73,162.68,37.75l.21-3.28Z"/>
        <path class="cls-9" d="M375.15,622.62s80.8-6.86,155.09,3.66c30.36,4.3,59.61,11.51,81.83,23.27,10.69,5.65,19.76,12.36,26.53,20.31l-2-9.3c21.37,11.06,50.72,24.93,53.92,19.52,0,0,1.52-8.14-38.71-34.48,0,0,60.6,23.46,60.6,15.32s-65.18-34-65.18-34,72.82,1,72.31-6.7S661,598.68,633,606.34c0,0,57.55-18.19,50.93-27.77-2.58-3.73-29.6,3.89-61.61,14.56l-32.6-185S734,496.21,719.57,623.9,684.76,816.7,479.72,782.22C408.05,770.17,371.05,764,353.21,761Z"/>
      </g>
    </g>
  </g>
</svg>
